<svg id="Layer_1" data-name="Layer 1" xmlns="http://www.w3.org/2000/svg" xmlns:xlink="http://www.w3.org/1999/xlink" viewBox="0 0 1080 1080"><defs><style>.cls-1,.cls-5{fill:#359668;}.cls-2,.cls-4{fill:#c93036;}.cls-3,.cls-6{fill:#a8d46f;}.cls-3,.cls-4,.cls-5,.cls-7{fill-rule:evenodd;}.cls-7,.cls-8{fill:#f9d423;}.cls-9{fill:#9bbf0a;}.cls-10{fill:#0d5998;}.cls-11{fill:#3183c5;}.cls-12{fill:#0c5799;}.cls-13{fill:url(#linear-gradient);}.cls-14{fill:#14548c;}.cls-15{fill:#fff;}.cls-16{fill:url(#linear-gradient-2);}.cls-17{fill:url(#linear-gradient-3);}</style><linearGradient id="linear-gradient" x1="534.68" y1="663.1" x2="537.12" y2="804.14" gradientUnits="userSpaceOnUse"><stop offset="0" stop-color="#3183c5"/><stop offset="1" stop-color="#0d5998"/></linearGradient><linearGradient id="linear-gradient-2" x1="262.58" y1="542.79" x2="262.76" y2="553.19" gradientUnits="userSpaceOnUse"><stop offset="0" stop-color="#0ba0da"/><stop offset="1" stop-color="#1a43ac"/></linearGradient><linearGradient id="linear-gradient-3" x1="627.5" y1="539.72" x2="806.78" y2="568.55" gradientUnits="userSpaceOnUse"><stop offset="0.74" stop-color="#fccd14"/><stop offset="1" stop-color="#f1793f"/></linearGradient></defs><title>435354</title><path class="cls-1" d="M570.39,328.5c3.86-3.63,7.9-4.46,8.71-2.43s-1.47,6.12-5,9.42a141.62,141.62,0,0,0-19,20.57c-10,12.76-20.78,32-29.35,52.11s-15.63,40.82-20.9,56.24-8.78,25.68-8.79,25.68,3.12-10.32,7.66-25.91,10.67-36.49,18.62-57.25,18.19-41.19,28.32-55.32A148,148,0,0,1,570.39,328.5Z"/><path class="cls-1" d="M446.28,293.53S422.89,316.07,408,372.29c0,0,1.07,1.95,2.93-2.78C410.93,369.51,435.65,306.61,446.28,293.53Z"/><path class="cls-2" d="M436.06,355.57c.19,1.22,1.12,2,1.95,1.77a2.1,2.1,0,0,0,1.14-2.47,42.59,42.59,0,0,1-.72-6.58,71.15,71.15,0,0,1,1.08-13.84c1.72-10.06,4.82-20,4.75-20s-3.78,9.77-6.28,19.9a73.06,73.06,0,0,0-2.18,14.19A40,40,0,0,0,436.06,355.57Z"/><path class="cls-1" d="M450.52,295.18,452,334s1.65,3.44,3.11,0Z"/><path class="cls-2" d="M455.09,296s6.75,12.16,11.33,33.21c0,0,2.45,3.77,3.59.69C470,329.89,467,309.69,455.09,296Z"/><path class="cls-1" d="M467.23,306.61s14.72,14.55,22.56,39.88c0,0,2.78,5,3.93,1.89C493.72,348.38,488.49,323.21,467.23,306.61Z"/><path class="cls-2" d="M456.93,293.53s15,6.74,30.74,23.86c0,0,6.05,3.26,3.27-2.05C490.94,315.34,474.92,298.76,456.93,293.53Z"/><path class="cls-1" d="M455.09,290.51S480.8,288,492.57,296c0,0,4.25,0,1.15-2.93C493.72,293.06,480.05,285.21,455.09,290.51Z"/><path class="cls-2" d="M455.09,286.92s3.31-11.64,15.74-5.48c0,0,6.38,3.77,6.38,4.28,0,0,4.25.61,4-3.1a5.78,5.78,0,0,0-.08-.67c-.82-4.45-6.14-6.84-15.46-5.64C465.67,276.31,457.33,279.22,455.09,286.92Z"/><path class="cls-1" d="M455.09,280.58s16.72-18.31,80.49-40c0,0,6.54-5.48-4.42-3.94C531.16,236.59,472.91,256.34,455.09,280.58Z"/><path class="cls-1" d="M468.16,260.08l28.14-32.44s2.09-5.85-2.58-3Z"/><path class="cls-3" d="M401.32,241.19c-2.86-14.66,38.63,4.88,34.31,3.31-13.08-4.75-32.39,6.59-34.31-3.31Z"/><path class="cls-3" d="M444,233.07c5.88-1.67,2.08,20,2.28,17.72.6-6.8-6.25-16.61-2.28-17.72Z"/><path class="cls-4" d="M452.8,285.08s1.6-18.34,24.7-54.42c0,0,3.42-9.67-3.2-4.43C474.3,226.23,462.18,238.32,452.8,285.08Z"/><path class="cls-5" d="M452.8,276l5.26-44.13s-.77-7.86-4.24-1.81C453.82,230.06,452,271.27,452.8,276Z"/><path class="cls-4" d="M450.52,285.08S447,256.34,440,251c0,0-4.28-3.37-2,2.68C438,253.64,448.76,274.19,450.52,285.08Z"/><path class="cls-5" d="M448.05,285.08s-3.34-17.15-20.91-33.19c0,0-8-3-6.81,3C420.33,254.87,445.58,275,448.05,285.08Z"/><path class="cls-4" d="M446.28,287.9s-18.82-23.65-54.63-36c0,0-14.24-3-10.2,3C381.45,254.87,425.33,269.19,446.28,287.9Z"/><path class="cls-5" d="M443.94,287.9s-7.44-14.61-72.11-19.8c0,0-27.53-1.57-16.56,6.7C355.27,274.8,430.21,274.37,443.94,287.9Z"/><path class="cls-4" d="M439,287.9s-21.13-5.45-40.68,10.88c0,0-7.39.78,0-5.25C398.32,293.53,414.66,279.92,439,287.9Z"/><path class="cls-4" d="M449.21,290.31s-17.75.41-29,18.55c0,0-.85,4,3.19,1.61C423.41,310.47,441.17,290.28,449.21,290.31Z"/><path class="cls-5" d="M420.14,294.35s-10.2,3.62-8.08,7.25C412.06,301.6,415,305.23,420.14,294.35Z"/><path class="cls-3" d="M397,345c-14.25-1,14.65-37.75,12.07-33.8-7.81,12-2.44,34.45-12.07,33.8Z"/><path class="cls-6" d="M651.22,310.55s31.29,30.15,51.2,105.34c0,0-1.42,2.61-3.91-3.72C698.51,412.17,665.45,328,651.22,310.55Z"/><path class="cls-1" d="M664.89,393.52c-.25,1.64-1.49,2.69-2.61,2.37s-1.75-1.78-1.52-3.3a54.76,54.76,0,0,0,1-8.8,94.23,94.23,0,0,0-1.45-18.51,271.62,271.62,0,0,0-6.35-26.7c-.09,0,5.05,13.07,8.4,26.62a99.11,99.11,0,0,1,2.92,19A51.71,51.71,0,0,1,664.89,393.52Z"/><path class="cls-6" d="M645.55,312.77l-1.95,51.87s-2.2,4.6-4.15,0Z"/><path class="cls-1" d="M639.45,313.85s-9,16.25-15.15,44.41c0,0-3.28,5-4.81.92C619.49,359.18,623.55,332.16,639.45,313.85Z"/><path class="cls-1" d="M623.21,328S603.53,347.5,593,381.39c0,0-3.72,6.64-5.25,2.52C587.78,383.91,594.78,350.25,623.21,328Z"/><path class="cls-6" d="M637,310.55s-20.11,9-41.11,31.91c0,0-8.09,4.37-4.37-2.74C591.5,339.72,612.93,317.55,637,310.55Z"/><path class="cls-1" d="M639.45,306.52s-34.39-3.43-50.14,7.33c0,0-5.68-.07-1.53-3.93C587.78,309.92,606.06,299.42,639.45,306.52Z"/><path class="cls-6" d="M639.45,301.71s-9.69-15.57-46-7.33c0,0-18.62,5-18.62,5.73,0,0-12.42.82-11.7-4.15a3.64,3.64,0,0,1,.25-.89c2.39-5.95,17.94-9.15,45.15-7.55C608.57,287.52,632.91,291.41,639.45,301.71Z"/><path class="cls-1" d="M639.45,293.24s-17.36-20.1-83.53-44c0,0-6.79-6,4.58-4.32C560.5,245,621,266.64,639.45,293.24Z"/><path class="cls-6" d="M622,265.82l-37.64-43.4s-2.79-7.81,3.45-4Z"/><path class="cls-3" d="M654.32,229.68c-7.87-2.22-2.78,26.71-3.05,23.71-.81-9.1,8.36-22.21,3.05-23.71Z"/><path class="cls-5" d="M642.5,299.25s-2.14-24.53-33-72.78c0,0-4.57-12.94,4.28-5.93C613.75,220.54,630,236.71,642.5,299.25Z"/><path class="cls-3" d="M642.5,287.11l-7-59s1-10.52,5.67-2.43C641.14,225.66,643.6,280.78,642.5,287.11Z"/><path class="cls-5" d="M645.55,299.25s4.75-38.44,14.07-45.64c0,0,5.72-4.5,2.63,3.59C662.25,257.2,647.91,284.69,645.55,299.25Z"/><path class="cls-3" d="M648.86,299.25s4.47-22.94,28-44.39c0,0,10.66-4.06,9.11,4C685.93,258.85,652.17,285.73,648.86,299.25Z"/><path class="cls-5" d="M651.22,303s25.19-31.63,73.07-48.16c0,0,19.05-4.05,13.64,4C737.93,258.85,679.24,278,651.22,303Z"/><path class="cls-3" d="M654.36,303s9.95-19.53,96.44-26.48c0,0,36.82-2.09,22.14,9C772.94,285.5,672.72,284.92,654.36,303Z"/><path class="cls-5" d="M661,303s28.26-7.28,54.42,14.55c0,0,9.88,1.05,0-7C715.38,310.55,693.52,292.34,661,303Z"/><path class="cls-5" d="M647.31,306.25s35.41.84,57.84,38.47c0,0,1.69,8.36-6.38,3.34C698.77,348.06,663.35,306.18,647.31,306.25Z"/><path class="cls-3" d="M686.18,311.64s13.65,4.85,10.82,9.71C697,321.35,693.13,326.2,686.18,311.64Z"/><path class="cls-1" d="M597.05,490.09s-49.79-124.87-91.52-162.92C505.53,327.17,593,478.27,597.05,490.09Z"/><path class="cls-1" d="M557,444.33s8.53-96.6-5.69-135.38C551.29,309,558.23,435.43,557,444.33Z"/><path class="cls-5" d="M545.86,254.86s.3.48.78,1.41a72.89,72.89,0,0,1,7.27,38.91l-7.75-39.84"/><path class="cls-7" d="M551.29,257.18s10.78,12.56,11.85,18.62c0,0,1.77,4.92-2.07.74C561.07,276.54,555.13,261,551.29,257.18Z"/><path class="cls-7" d="M535.29,254.94s-19.21,7.71-22.6,13.38c0,0-4,4.17,2.73,1.72C515.42,270,528.64,257,535.29,254.94Z"/><path class="cls-5" d="M551.29,254.86s14.19-3,39.23,20.16c0,0,7.23,3,4.08-2.48C594.6,272.54,575.22,255.65,551.29,254.86Z"/><path class="cls-7" d="M551.29,243.1l16.94-30.91s0-4.75-2.62-.91C565.61,211.28,551.46,240.72,551.29,243.1Z"/><path class="cls-5" d="M545.86,248l.71-29.57s-1.57-4.16-2.44,0l1.73,30.31"/><path class="cls-7" d="M543.08,247.67s-9.43-28.17-34.23-47.73c0,0-7.34-2.75-4.54,1.46C504.31,201.4,535,227.69,543.08,247.67Z"/><path class="cls-5" d="M539.06,245.66s-11.35-14.85-19.56-19.22c0,0-5.59-.72-2.09,3.12C517.41,229.56,530.68,236.33,539.06,245.66Z"/><path class="cls-7" d="M540.64,250S522.12,234,483.35,231.58c0,0-10.51-.92-.89,3.47C482.46,235.05,523,239.57,540.64,250Z"/><path class="cls-5" d="M540.64,251.6s-27.29-4.87-34.24.53c0,0-4.33,3.29,1.87,2.75C508.27,254.88,530.18,250.18,540.64,251.6Z"/><path class="cls-8" d="M544,256.05s-7.35,16.77-8,42.3c0,0-2.58,7.18-4,.84C532,299.19,533.3,273.84,544,256.05Z"/><path class="cls-1" d="M545.83,251.38s-14.39,13.21-28,63.44c0,0-4.18,5.16-3.74-3.46C514.14,311.36,526.44,265.47,545.83,251.38Z"/><path class="cls-8" d="M789.39,318.39c1.79,0,2.42,2.94,1.52,4.53s-2.2,1.51-4,1.46-2.42-2.95-1.52-4.53S787.58,318.33,789.39,318.39Z"/><path class="cls-8" d="M790.63,339.49c.94-.87,3-.3,3.34,2.07.16,2.22-1.3,3.1-2.6,2.88a3.1,3.1,0,0,1-2.3-2.26A4.17,4.17,0,0,1,790.63,339.49Z"/><path class="cls-8" d="M796.6,350.17c2,1.79,2.91,4.08,2.43,5.79a4.93,4.93,0,0,1-5.41,3.33c-2.5-.46-4.35-2.91-3.48-6.18C791.16,349.64,794.71,348.45,796.6,350.17Z"/><path class="cls-8" d="M758,303.27a4,4,0,0,1,3.11,4.56,3.81,3.81,0,0,1-4.36,3.25,3.94,3.94,0,0,1-3.1-4.56A3.8,3.8,0,0,1,758,303.27Z"/><path class="cls-8" d="M760,319.68c1.29-.08,1.94,2.49.07,4s-4.05-.11-3.56-1.36.58-2.44.86-2.61S758.64,319.69,760,319.68Z"/><path class="cls-8" d="M349.85,351.74c-1.22.32-2.85-1.18-2.09-3.44.82-2.06,2.5-2.14,3.56-1.33a3.23,3.23,0,0,1,1.08,3.1A4,4,0,0,1,349.85,351.74Z"/><path class="cls-8" d="M349.14,339.38c-1-2.56-.84-5,.34-6.31a4.76,4.76,0,0,1,6.26-.41,4.81,4.81,0,0,1,.44,7.16C353.76,342.43,350.08,341.81,349.14,339.38Z"/><path class="cls-8" d="M360.24,326.28a2.44,2.44,0,0,1-.48-3.32,2.19,2.19,0,0,1,3.17-.5,2.44,2.44,0,0,1,.48,3.32A2.2,2.2,0,0,1,360.24,326.28Z"/><path class="cls-8" d="M453.4,164.07c.22-1.86,3-2.25,4.45-1.15s1.23,2.43,1,4.31-3,2.24-4.45,1.15S453.18,166,453.4,164.07Z"/><path class="cls-8" d="M473.58,164.79c-.74-1.07,0-3.21,2.29-3.29a2.35,2.35,0,0,1,2.49,3,3.1,3.1,0,0,1-2.37,2.19A4,4,0,0,1,473.58,164.79Z"/><path class="cls-8" d="M484.3,159.58c1.9-2,4.16-2.65,5.74-2a5.25,5.25,0,0,1,2.65,6,4.42,4.42,0,0,1-6.2,3C483.29,165.2,482.49,161.38,484.3,159.58Z"/><path class="cls-8" d="M500,165.6a2.27,2.27,0,0,1,2.78-1.68,2.4,2.4,0,0,1,1.61,2.91,2.26,2.26,0,0,1-2.78,1.68A2.4,2.4,0,0,1,500,165.6Z"/><path class="cls-8" d="M436,195.3a3.76,3.76,0,0,1,4.63-2.8,4,4,0,0,1,2.68,4.84,3.76,3.76,0,0,1-4.63,2.8A4,4,0,0,1,436,195.3Z"/><path class="cls-8" d="M451.83,194.79c.05-1.36,2.55-1.79,3.79.3s-.49,4.22-1.64,3.58-2.26-.83-2.4-1.14S451.71,196.24,451.83,194.79Z"/><path class="cls-8" d="M651.74,172.78c1.25-1.34,3.71.14,4.21,1.91s-.43,2.72-1.69,4.07-3.71-.13-4.21-1.9S650.48,174.14,651.74,172.78Z"/><path class="cls-8" d="M667.38,186.15c0-1.31,1.86-2.54,3.73-1.16a2.44,2.44,0,0,1,.25,3.95,2.92,2.92,0,0,1-3.14.24A4.32,4.32,0,0,1,667.38,186.15Z"/><path class="cls-8" d="M678.93,188.81c2.64-.35,4.84.52,5.71,2.06a5.34,5.34,0,0,1-1.34,6.42c-2,1.62-5,1.37-6.69-1.51C674.87,192.64,676.44,189.1,678.93,188.81Z"/><path class="cls-8" d="M687.94,203.56a2.21,2.21,0,0,1,3.18.42,2.44,2.44,0,0,1-.4,3.33,2.19,2.19,0,0,1-3.18-.42A2.45,2.45,0,0,1,687.94,203.56Z"/><path class="cls-8" d="M619.86,186.63a3.67,3.67,0,0,1,5.31.71,4.08,4.08,0,0,1-.67,5.55,3.67,3.67,0,0,1-5.31-.71A4.08,4.08,0,0,1,619.86,186.63Z"/><path class="cls-8" d="M632.73,196.24c.82-1.05,3.06.19,2.83,2.64s-2.83,3-3.37,1.81-1.32-2.1-1.25-2.43S631.79,197.32,632.73,196.24Z"/><path class="cls-1" d="M382.26,369a3.83,3.83,0,0,1-5.57.52,4.27,4.27,0,0,1-.5-5.83,3.84,3.84,0,0,1,5.57-.53A4.27,4.27,0,0,1,382.26,369Z"/><polygon class="cls-1" points="364.48 352.91 367.11 354.62 370.03 353.54 370.39 356.76 373.02 358.47 370.84 360.77 371.21 364 368.13 363.65 365.94 365.95 364.28 363.22 361.2 362.87 362.21 359.8 360.55 357.06 363.47 355.98 364.48 352.91"/><polygon class="cls-1" points="379.07 345.24 381.13 346.57 383.4 345.73 383.68 348.23 385.73 349.57 384.03 351.37 384.32 353.88 381.92 353.61 380.22 355.4 378.92 353.27 376.52 353 377.31 350.61 376.01 348.47 378.29 347.63 379.07 345.24"/><path class="cls-1" d="M377.09,239.64a4.19,4.19,0,0,1-2.69-5.14,3.94,3.94,0,0,1,4.91-2.82,4.18,4.18,0,0,1,2.69,5.14A3.94,3.94,0,0,1,377.09,239.64Z"/><polygon class="cls-1" points="384.04 216.15 383.6 219.36 385.71 221.73 383.04 223.36 382.59 226.57 379.7 225.4 377.03 227.04 376.1 223.94 373.21 222.77 374.94 220.08 374.02 216.99 377.11 216.73 378.84 214.04 380.95 216.41 384.04 216.15"/><polygon class="cls-1" points="396.6 227.09 396.25 229.59 397.9 231.44 395.81 232.71 395.46 235.21 393.21 234.3 391.13 235.57 390.4 233.16 388.15 232.25 389.5 230.16 388.78 227.74 391.19 227.54 392.54 225.45 394.19 227.29 396.6 227.09"/><path class="cls-1" d="M488.13,194.57a2.4,2.4,0,0,1,.81,3.19,2.17,2.17,0,0,1-3.05.86,2.4,2.4,0,0,1-.81-3.19A2.18,2.18,0,0,1,488.13,194.57Z"/><polygon class="cls-1" points="481.32 206.47 481.98 204.78 481.12 203.18 482.79 202.66 483.45 200.96 484.88 202.01 486.56 201.49 486.67 203.31 488.1 204.36 486.81 205.59 486.93 207.41 485.2 207.13 483.91 208.36 483.05 206.76 481.32 206.47"/><polygon class="cls-1" points="475.84 198.72 476.35 197.4 475.68 196.16 476.98 195.75 477.49 194.43 478.61 195.25 479.92 194.84 480 196.26 481.12 197.07 480.12 198.03 480.2 199.46 478.86 199.23 477.85 200.19 477.18 198.95 475.84 198.72"/><path class="cls-1" d="M642.77,205.13a2.93,2.93,0,1,1,3,3A3,3,0,0,1,642.77,205.13Z"/><polygon class="cls-1" points="660.14 204.79 657.88 205.21 656.78 207.32 655.07 205.73 652.81 206.14 652.92 203.75 651.21 202.16 653.07 200.76 653.18 198.36 655.39 199.01 657.25 197.61 658.14 199.82 660.35 200.48 659.25 202.58 660.14 204.79"/><polygon class="cls-1" points="655.71 216.56 653.95 216.89 653.1 218.53 651.76 217.29 650 217.61 650.09 215.74 648.75 214.51 650.2 213.42 650.29 211.55 652.01 212.06 653.46 210.97 654.15 212.69 655.87 213.2 655.01 214.84 655.71 216.56"/><path class="cls-1" d="M711,342.29a2.93,2.93,0,1,1,3,3A3,3,0,0,1,711,342.29Z"/><polygon class="cls-1" points="728.35 341.96 726.09 342.38 725 344.48 723.28 342.89 721.02 343.31 721.14 340.91 719.42 339.33 721.28 337.93 721.4 335.53 723.6 336.18 725.46 334.78 726.36 336.99 728.56 337.64 727.46 339.75 728.35 341.96"/><polygon class="cls-1" points="723.92 353.73 722.16 354.05 721.31 355.69 719.97 354.46 718.21 354.78 718.3 352.91 716.96 351.68 718.41 350.58 718.5 348.72 720.22 349.22 721.67 348.13 722.36 349.86 724.08 350.36 723.23 352.01 723.92 353.73"/><path class="cls-1" d="M453.76,352.75a3,3,0,0,1,2.83-3.17,3.07,3.07,0,1,1-2.83,3.17Z"/><polygon class="cls-1" points="471.13 352.42 468.87 352.83 467.78 354.94 466.06 353.35 463.8 353.77 463.92 351.37 462.2 349.78 464.06 348.38 464.18 345.99 466.38 346.64 468.24 345.24 469.13 347.45 471.34 348.1 470.24 350.21 471.13 352.42"/><polygon class="cls-1" points="466.7 364.19 464.94 364.51 464.09 366.15 462.75 364.91 460.99 365.24 461.08 363.37 459.74 362.13 461.19 361.04 461.28 359.17 463 359.68 464.45 358.59 465.14 360.31 466.86 360.82 466.01 362.46 466.7 364.19"/><polygon class="cls-2" points="349.17 230.4 346.82 234.46 351.21 235.57 346.82 236.7 349.17 240.75 345.3 238.28 344.23 242.89 343.16 238.28 339.29 240.75 341.64 236.7 337.25 235.58 341.64 234.46 339.29 230.4 343.16 232.87 344.23 228.26 345.3 232.87 349.17 230.4"/><polygon class="cls-2" points="432.08 174.11 429.73 178.16 434.13 179.28 429.73 180.41 432.08 184.46 428.21 181.99 427.14 186.6 426.07 181.99 422.2 184.46 424.56 180.41 420.16 179.28 424.56 178.16 422.2 174.11 426.07 176.58 427.14 171.97 428.21 176.58 432.08 174.11"/><polygon class="cls-2" points="564.7 188.34 562.34 192.39 566.74 193.51 562.34 194.63 564.7 198.68 560.83 196.22 559.76 200.82 558.68 196.22 554.82 198.68 557.17 194.63 552.78 193.51 557.17 192.39 554.82 188.34 558.69 190.8 559.76 186.2 560.83 190.8 564.7 188.34"/><polygon class="cls-2" points="590.52 168.04 598.07 163.89 596.63 172.69 602.73 178.92 594.29 180.2 590.52 188.2 586.75 180.2 578.32 178.92 584.42 172.69 582.98 163.89 590.52 168.04"/><path class="cls-9" d="M407,419.27c-1.86-2.87-6.72-6.94-18.91-11.53.44.28,8,5.11,6.83,12.86a18.33,18.33,0,0,1-8.29-4.64c.87,2.57,1.1,10.51,1.1,10.51-8.46-21.94-34.79-10.82-34.79-10.82s14.74,2,19.44,21.19a47.25,47.25,0,0,1,1,12.26,113.56,113.56,0,0,1-1,12,270.24,270.24,0,0,1-8.15,37.28c1.25-10.53-1.26-25.27-1.26-25.27.32,4.93-4.7,10.53-4.7,10.53a156.3,156.3,0,0,0-4.71-43.25c.89,5.32-3.12,19.61-3.12,19.61-1.57-29.8-23.51-44.33-23.51-44.33-6.89,66.91,40.75,170.66,40.75,170.66v75.22H355.2l-1.51-25.75h0l-.12-2.13-2.19-35.73c-30.72-47.64-34.17-178.19-34.17-178.19-13.46-.66-38.56,44.24-44.69,55.6-.89,1.65-1.38,2.59-1.38,2.59-.15-.82-.28-1.65-.37-2.48C267.7,448.73,292.44,413,292.44,413c-4.93,0-20.8,6.52-21.3,6.72l6.26-9.46c-10.18,1.63-29.17,19.41-29.77,20l6.26-12.88C236,418.86,220,443.43,220,443.43c-3.44-61.71,70.21-59.27,70.21-59.27-3.76-7.51-33.22-1.89-33.22-1.89l9.4-7.83c-15-7.52-37.3,1.56-37.3,1.56,23.2-55.47,79.61-2.82,79.61-2.82.63-85.25,57-63,57-63-17.86,5-28.2,28.2-28.2,28.2h13.47c-14.81,5.25-22.93,24.16-23.18,24.75l9.1-4.75c-5.8,3.55-7.86,19.65-7.86,19.65s14.11-26.48,45.14-26.09S406.84,378,406.84,378c-2.19-4.54-17.55-7.68-17.55-7.68l3.14,7.68c-1.26-2.66-20.06-2.66-20.06-2.66l3.44,7.21c-25.7-6.59-28.2,4.7-28.2,4.7s18.17-2.51,42.62,3.95C412.61,397.16,407.94,416.11,407,419.27Z"/><polygon class="cls-10" points="555.09 304.86 486.45 344.66 486.45 588.82 467.02 600.41 467.02 449.72 420.71 419.72 420.71 632.38 372.37 661.53 552.65 661.53 555.09 304.86"/><path class="cls-10" d="M323.42,661.53l-64.83-68.95s3.58,47.6,9.46,68.95Z"/><polygon class="cls-11" points="737.5 661.53 737.5 452.79 687.35 420.82 684.85 630.19 621.54 591.95 621.54 348.11 552.58 302.98 552.58 661.53 737.5 661.53"/><polygon class="cls-12" points="687.35 420.82 639.64 445.98 639.64 602.88 684.85 630.19 687.35 420.82"/><path class="cls-13" d="M788.06,667.49H280.28a12.45,12.45,0,0,0-3.95.81l-.67.3a4.16,4.16,0,0,0-.51.28,6.22,6.22,0,0,0-.76.5,5.85,5.85,0,0,0-.7.53,11.44,11.44,0,0,0-1.56,1.3,12.63,12.63,0,0,0-2.37,3.26l-.07.12c0,.06,0,.07,0,.07a12.64,12.64,0,0,0,3.95,15.81,12.76,12.76,0,0,0,7.63,2.49H545.47a6.54,6.54,0,0,1,6.47,5,6.32,6.32,0,0,1-1.72,5.9,6.25,6.25,0,0,1-4.48,1.88H361.27a11.72,11.72,0,0,0,0,23.44h111a5.9,5.9,0,0,1,6,5.37,5.72,5.72,0,0,1-5.71,6.09H435.43a12.66,12.66,0,0,0-11.13,11.26,10.49,10.49,0,0,0-.08,1.39v.1a10.65,10.65,0,0,0,.08,1.4,12.86,12.86,0,0,0,3.6,7.62,12.45,12.45,0,0,0,8.87,3.72H512.6a7.33,7.33,0,0,1,1.63.17,7.15,7.15,0,0,1,5.52,7,7.18,7.18,0,0,1-5.52,7,7.33,7.33,0,0,1-1.63.17H486.89a11.45,11.45,0,0,0-11.07,8.45,11.08,11.08,0,0,0-.41,3v0a10.92,10.92,0,0,0,.41,3,11.45,11.45,0,0,0,11.07,8.48h99.7c.41,0,.81,0,1.21,0a11.14,11.14,0,0,0,2.14-.44,7.54,7.54,0,0,0,.79-.3,4.13,4.13,0,0,0,.68-.3A11.39,11.39,0,0,0,598,791.83v0a11.39,11.39,0,0,0-7.31-10.64s-.06,0-.09,0a6,6,0,0,0-.67-.24l-.19,0a9.71,9.71,0,0,0-2-.4,9.61,9.61,0,0,0-1.19-.07H547.77v-.17a7.17,7.17,0,0,1-5.53-7,7.12,7.12,0,0,1,5.53-7v-.17h89.68a12.57,12.57,0,0,0,12.47-11.18,9.24,9.24,0,0,0,.08-1.4v-.07a9.24,9.24,0,0,0-.08-1.4,12.52,12.52,0,0,0-12.47-11.18H530.19a5.86,5.86,0,0,1,0-11.72h183.1a11.64,11.64,0,0,0,7.38-2.63,2.19,2.19,0,0,0,.39-.36,11.54,11.54,0,0,0,3.93-8.72,11.72,11.72,0,0,0-3.43-8.3,2.63,2.63,0,0,0-.5-.44,2.57,2.57,0,0,0-.39-.35,11.59,11.59,0,0,0-7.38-2.64H606.88a6.53,6.53,0,0,1-6.47-5,6.38,6.38,0,0,1,6.21-7.77h182.2a12.66,12.66,0,0,0,8.94-3.45l.06,0a12.91,12.91,0,0,0,3.77-8.67C801.83,673.47,795.38,667.49,788.06,667.49Z"/><path class="cls-14" d="M282.22,847.82v75.85h23.59V847.82Zm-32.63-26.14v19.23h88.86V821.68Z"/><path class="cls-14" d="M398.42,883.89h-17.8l-7.57,17.92H406Zm3-62.21H378.08l-45.45,102h24.18l7.4-17.9,1.63-4h0l7.57-17.92h0l16.17-39,16.17,39h-.17l7.57,17.92h0l1.48,3.57.16.39,7.39,17.9H447Z"/><path class="cls-14" d="M525.08,890.89c13.25-5.69,21-16.9,21-32.2,0-22.88-17-37-44.29-37H457.63v102h23.6V840.91h19.23c14.42,0,21.7,6.56,21.7,17.78,0,11.07-7.28,17.77-21.7,17.77H487.29v18.8h15.65l19.66,28.41H548Z"/><path class="cls-14" d="M564.71,867.58v56.09h23.6V886.52h47.2V867.58Zm0-45.9v40.21h23.6V840.62h53.46V821.68Z"/><path class="cls-14" d="M657.8,821.68v102h23.61v-102Z"/><path class="cls-14" d="M705.59,821.68v102h23.6v-102Zm69.93,0v40.21h-.43v20h.43v41.82h23.6v-102ZM735,861.89v20h34.36v-20Z"/><polygon class="cls-15" points="601.79 352.97 616.09 362.11 616.09 379 601.79 370.65 601.79 352.97"/><polygon class="cls-15" points="583.12 341.25 597.42 350.39 597.42 367.27 583.12 358.93 583.12 341.25"/><polygon class="cls-15" points="564.84 329.93 579.14 339.07 579.14 355.95 564.84 347.61 564.84 329.93"/><polygon class="cls-15" points="601.79 384.16 616.09 393.3 616.09 410.18 601.79 401.84 601.79 384.16"/><polygon class="cls-15" points="583.12 372.44 597.42 381.58 597.42 398.46 583.12 390.12 583.12 372.44"/><polygon class="cls-15" points="564.84 361.12 579.14 370.25 579.14 387.14 564.84 378.8 564.84 361.12"/><polygon class="cls-15" points="601.79 414.36 616.09 423.49 616.09 440.38 601.79 432.04 601.79 414.36"/><polygon class="cls-15" points="583.12 402.63 597.42 411.77 597.42 428.66 583.12 420.31 583.12 402.63"/><polygon class="cls-15" points="564.84 391.31 579.14 400.45 579.14 417.34 564.84 408.99 564.84 391.31"/><polygon class="cls-15" points="602.27 440.38 617.18 449.91 617.18 467.51 602.27 458.81 602.27 440.38"/><polygon class="cls-15" points="583.12 431.04 597.42 440.18 597.42 457.07 583.12 448.72 583.12 431.04"/><polygon class="cls-15" points="564.84 419.72 579.14 428.86 579.14 445.74 564.84 437.4 564.84 419.72"/><polygon class="cls-15" points="602.27 471.65 617.18 481.18 617.18 498.78 602.27 490.08 602.27 471.65"/><polygon class="cls-15" points="582.8 459.43 597.71 468.96 597.71 486.56 582.8 477.87 582.8 459.43"/><polygon class="cls-15" points="563.75 447.63 578.66 457.15 578.66 474.76 563.75 466.06 563.75 447.63"/><polygon class="cls-15" points="721.77 456.34 731.66 462.65 731.66 474.33 721.77 468.56 721.77 456.34"/><polygon class="cls-15" points="708.86 448.23 718.75 454.55 718.75 466.23 708.86 460.46 708.86 448.23"/><polygon class="cls-15" points="696.22 440.4 706.11 446.72 706.11 458.4 696.22 452.63 696.22 440.4"/><polygon class="cls-15" points="721.77 477.9 731.66 484.22 731.66 495.9 721.77 490.13 721.77 477.9"/><polygon class="cls-15" points="708.86 469.8 718.75 476.12 718.75 487.79 708.86 482.02 708.86 469.8"/><polygon class="cls-15" points="696.22 461.97 706.11 468.29 706.11 479.96 696.22 474.19 696.22 461.97"/><polygon class="cls-15" points="721.77 498.78 731.66 505.1 731.66 516.78 721.77 511.01 721.77 498.78"/><polygon class="cls-15" points="708.86 490.68 718.75 497 718.75 508.67 708.86 502.9 708.86 490.68"/><polygon class="cls-15" points="696.22 482.85 706.11 489.17 706.11 500.84 696.22 495.07 696.22 482.85"/><polygon class="cls-15" points="722.11 516.78 732.42 523.37 732.42 535.54 722.11 529.52 722.11 516.78"/><polygon class="cls-15" points="708.86 510.32 718.75 516.64 718.75 528.32 708.86 522.55 708.86 510.32"/><polygon class="cls-15" points="696.22 502.49 706.11 508.81 706.11 520.49 696.22 514.72 696.22 502.49"/><polygon class="cls-15" points="722.11 538.4 732.42 544.99 732.42 557.16 722.11 551.15 722.11 538.4"/><polygon class="cls-15" points="708.64 529.96 718.96 536.54 718.96 548.72 708.64 542.7 708.64 529.96"/><polygon class="cls-15" points="695.47 521.79 705.78 528.38 705.78 540.55 695.47 534.54 695.47 521.79"/><polygon class="cls-15" points="451.02 452.5 459.24 457.75 459.24 467.46 451.02 462.66 451.02 452.5"/><polygon class="cls-15" points="440.28 445.76 448.51 451.01 448.51 460.72 440.28 455.92 440.28 445.76"/><polygon class="cls-15" points="429.77 439.25 438 444.5 438 454.21 429.77 449.41 429.77 439.25"/><polygon class="cls-15" points="451.02 470.43 459.24 475.69 459.24 485.39 451.02 480.6 451.02 470.43"/><polygon class="cls-15" points="440.28 463.69 448.51 468.95 448.51 478.65 440.28 473.86 440.28 463.69"/><polygon class="cls-15" points="429.77 457.18 438 462.44 438 472.14 429.77 467.35 429.77 457.18"/><polygon class="cls-15" points="451.02 487.79 459.24 493.05 459.24 502.76 451.02 497.96 451.02 487.79"/><polygon class="cls-15" points="440.28 481.05 448.51 486.31 448.51 496.02 440.28 491.22 440.28 481.05"/><polygon class="cls-15" points="429.77 474.54 438 479.8 438 489.51 429.77 484.71 429.77 474.54"/><polygon class="cls-15" points="451.3 502.76 459.87 508.24 459.87 518.36 451.3 513.36 451.3 502.76"/><polygon class="cls-15" points="440.28 497.39 448.51 502.64 448.51 512.35 440.28 507.56 440.28 497.39"/><polygon class="cls-15" points="429.77 490.88 438 496.13 438 505.84 429.77 501.04 429.77 490.88"/><polygon class="cls-15" points="451.3 520.74 459.87 526.22 459.87 536.34 451.3 531.34 451.3 520.74"/><polygon class="cls-15" points="440.1 513.71 448.68 519.19 448.68 529.32 440.1 524.31 440.1 513.71"/><polygon class="cls-15" points="429.14 506.93 437.72 512.4 437.72 522.53 429.14 517.52 429.14 506.93"/><polygon class="cls-15" points="682.42 436.73 643.87 457.02 643.87 471.13 682.42 451.07 682.42 436.73"/><polygon class="cls-15" points="546.13 325.86 492.84 359 492.84 378.04 546.13 346.54 546.13 325.86"/><polygon class="cls-15" points="546.13 358.07 492.84 391.21 492.84 410.25 546.13 378.75 546.13 358.07"/><polygon class="cls-15" points="546.13 391.24 492.84 424.39 492.84 443.43 546.13 411.93 546.13 391.24"/><polygon class="cls-15" points="546.13 423.62 492.84 456.77 492.84 475.81 546.13 444.31 546.13 423.62"/><polygon class="cls-15" points="546.13 455.77 492.84 488.92 492.84 507.96 546.13 476.46 546.13 455.77"/><polygon class="cls-15" points="682.42 459.02 643.87 479.32 643.87 493.42 682.42 473.36 682.42 459.02"/><polygon class="cls-15" points="682.42 482.84 643.87 503.14 643.87 517.24 682.42 497.18 682.42 482.84"/><polygon class="cls-15" points="682.42 506.58 643.87 526.88 643.87 540.98 682.42 520.92 682.42 506.58"/><polygon class="cls-15" points="682.42 528.91 643.87 549.21 643.87 563.31 682.42 543.25 682.42 528.91"/><polygon class="cls-11" points="378.69 661.53 420.71 632.38 420.71 419.72 372.37 449.72 372.37 661.53 378.69 661.53"/><polygon class="cls-15" points="411.31 436.84 381.77 455.21 381.77 465.77 411.31 448.31 411.31 436.84"/><polygon class="cls-15" points="411.31 454.7 381.77 473.07 381.77 483.62 411.31 466.16 411.31 454.7"/><polygon class="cls-15" points="411.31 473.08 381.77 491.46 381.77 502.01 411.31 484.55 411.31 473.08"/><polygon class="cls-15" points="411.31 491.03 381.77 509.41 381.77 519.96 411.31 502.5 411.31 491.03"/><polygon class="cls-15" points="411.31 508.86 381.77 527.23 381.77 537.78 411.31 520.32 411.31 508.86"/><path class="cls-9" d="M202.84,541s14.92-14.25,19.89-11.3c0,0-43.42,26.07-18.41,60.39,0,0,.07-20.14,9.79-27.69l1.22,9.8s4.38-17.83,9.72-22.65l-.07,7.8s6.88-10,9.79-11.85c0,0-1,31.78,11.93,45.48,0,0-4.3-45.48,4.87-50.82,0,0,2.2,3.2,6,8.43.48.66,1,1.4,1.54,2.14,0,0,56.29,85.67,83.85,110.82H359.3l-5.61-25.75s-70.64-62.68-89.35-87.47a38.88,38.88,0,0,1-3.6-5.48,99,99,0,0,1-5.09-8.66A40.5,40.5,0,0,1,285.78,551s-3-9.76-5.49-12.48a108,108,0,0,1,18.86,23.2S300,556.67,298,554c.78.88,7,7.88,10.06,14-.48-1.73-8.66-29.5-18.23-38.48-9.87-9.32-19.15-5-19.15-5s11.05-16.21,24.12-6.78c-.33-.51-3.17-4.53-4.53-5.6a12.89,12.89,0,0,0,13.07-5.37s-3.68-15.65-20.21-10.24S257,510.05,257,510.05s-2.77-7.44,14.54-13.22L266.89,494s10.86-7,12.59-6l-4.68-3.24s10-3.94,13-2.14c0,0-10.49-14.25-28.57-2.91s-16.32,31.93-16.32,31.93-4.64-9.72-2.91-14.07l-3.39,5.93s-2.54-14.25,4.16-22.94l-7.77,5s-2.68-17.24,5.75-26.81c0,0-40.88,8.21-9.43,57.67,0,0-52.22-9.35-44.93,31.34,0,0,9.47-13.55,21-14.8Z"/><path class="cls-16" d="M264.53,548.28c-.08,0-.11,0-.19,0a38.88,38.88,0,0,1-3.6-5.48C261.91,544.63,263.2,546.47,264.53,548.28Z"/><path class="cls-17" d="M786,661.53c3.18-9.3,42.7-131.47-44.09-206.83V661.53Z"/></svg>